<?xml version="1.0" standalone="no"?>
<!DOCTYPE svg PUBLIC "-//W3C//DTD SVG 20010904//EN"
 "http://www.w3.org/TR/2001/REC-SVG-20010904/DTD/svg10.dtd">
<svg version="1.0" xmlns="http://www.w3.org/2000/svg"
 width="480.000000pt" height="480.000000pt" viewBox="0 0 480.000000 480.000000"
 preserveAspectRatio="xMidYMid meet">
<metadata>
Created by potrace 1.14, written by Peter Selinger 2001-2017
</metadata>
<g transform="translate(0.000000,480.000000) scale(0.100000,-0.100000)"
fill="#000000" stroke="none">
<path d="M2096 3500 c-62 -19 -117 -97 -151 -215 -14 -48 -17 -84 -12 -184 5
-120 4 -126 -18 -156 -36 -46 -82 -150 -107 -240 -19 -72 -22 -106 -23 -325
-2 -270 1 -258 -75 -415 -52 -107 -68 -162 -76 -250 -6 -65 -10 -73 -45 -106
-28 -26 -40 -46 -45 -78 l-7 -42 -121 6 c-66 3 -186 10 -266 15 -524 34 -543
34 -583 15 -70 -33 -79 -66 -88 -330 -4 -126 -8 -256 -8 -289 l-1 -58 -185 7
-185 7 0 -204 0 -205 31 -61 c33 -67 87 -120 161 -158 111 -56 8 -54 2108 -53
2083 0 1988 -3 2095 52 66 33 142 110 171 172 20 42 24 66 24 151 l0 101 -130
5 c-72 3 -133 7 -136 11 -4 3 -1 70 6 149 7 79 14 319 17 533 5 344 3 398 -12
455 -28 110 -87 181 -183 222 -17 8 -125 14 -301 18 l-275 5 -11 45 c-7 25
-30 86 -53 136 -48 107 -72 193 -72 260 0 64 -23 191 -50 277 -21 67 -72 185
-86 200 -4 4 -6 62 -5 129 1 96 -3 137 -17 188 -35 119 -81 185 -147 210 -79
30 -288 -39 -386 -127 l-40 -36 -162 -1 -162 -1 -30 34 c-47 53 -128 100 -212
121 -83 22 -103 23 -147 10z"/>
</g>
</svg>
