<?xml version="1.0" standalone="no"?>
<!DOCTYPE svg PUBLIC "-//W3C//DTD SVG 20010904//EN"
 "http://www.w3.org/TR/2001/REC-SVG-20010904/DTD/svg10.dtd">
<svg version="1.0" xmlns="http://www.w3.org/2000/svg"
 width="70.000000pt" height="70.000000pt" viewBox="0 0 70.000000 70.000000"
 preserveAspectRatio="xMidYMid meet">
<metadata>
Created by potrace 1.14, written by Peter Selinger 2001-2017
</metadata>
<g transform="translate(0.000000,70.000000) scale(0.100000,-0.100000)"
fill="#000000" stroke="none">
<path d="M315 645 c-22 -8 -51 -15 -64 -15 -16 0 -42 -19 -77 -57 -60 -63 -68
-96 -38 -158 16 -35 60 -55 86 -39 7 5 -4 -12 -24 -36 -73 -84 -101 -174 -74
-232 27 -57 44 -62 230 -65 146 -2 172 -1 188 14 24 21 23 55 -2 78 -18 16
-20 31 -20 131 0 97 2 113 15 108 44 -17 89 22 99 85 6 44 -4 67 -57 124 -37
38 -51 47 -79 47 -19 0 -38 4 -44 10 -18 18 -97 21 -139 5z m140 -39 c36 -24
57 -71 58 -136 2 -92 -47 -145 -133 -144 -96 1 -147 62 -135 162 4 31 14 69
23 84 32 54 129 72 187 34z m-221 -36 c-8 -16 -18 -61 -21 -100 -6 -75 -19
-88 -47 -48 -27 39 -20 75 27 129 48 56 62 63 41 19z m335 -23 c37 -44 41 -53
35 -85 -15 -84 -56 -84 -61 0 -1 31 -9 75 -17 98 -17 51 -10 48 43 -13z m-259
-238 c42 -18 96 -17 139 2 l41 18 0 -88 c0 -75 3 -92 21 -115 29 -37 19 -56
-30 -56 -30 0 -39 3 -35 14 3 7 -4 30 -14 50 -13 24 -18 48 -15 71 4 27 1 35
-11 35 -26 0 -25 -93 1 -122 26 -29 9 -48 -41 -48 -25 0 -48 6 -53 13 -4 6 -8
43 -8 81 -1 45 -5 71 -13 74 -7 2 -12 -1 -12 -7 0 -6 -11 -11 -24 -11 -33 0
-57 -10 -50 -21 3 -5 18 -9 35 -9 16 0 29 -3 29 -7 1 -5 3 -32 6 -60 l4 -53
-34 0 c-66 0 -106 35 -106 93 1 31 34 102 71 148 30 38 32 39 53 24 11 -8 32
-20 46 -26z"/>
<path d="M300 499 c-13 -22 1 -49 26 -49 22 0 27 21 8 34 -9 7 -14 18 -10 24
4 7 3 12 -3 12 -6 0 -15 -9 -21 -21z"/>
<path d="M423 513 c-7 -3 -13 -18 -13 -34 0 -22 5 -29 19 -29 23 0 38 19 23
29 -5 3 -11 13 -13 22 -2 9 -10 14 -16 12z"/>
<path d="M354 428 c-9 -13 21 -42 35 -34 6 4 11 13 11 20 0 17 -38 28 -46 14z"/>
</g>
</svg>
